# xmcd
#
# Track frame offsets:
#	150
#	27532
#	44520
#	59667
#	77020
#	90270
#	101957
#	115592
#	132372
#	149692
#	163957
#	180937
#	196534
#	210215
#	227495
#	242865
#	259285
#	276477
#	291872
#	305437
#
# Disc length: 4227
#
# Revision: 3
# Processed by: cddbd v1.5.1PL0 Copyright (c) Steve Scherf et al.
# Submitted via: OrangeCD 5.2
# Normalized: r2:DSETVAR1
#
DISCID=24108114
DTITLE=Various Artist - Toe The Line 4 [CD2]
DYEAR=1999
DGENRE=Country
TTITLE0=The Mavericks - La Mucara
TTITLE1=Reba McEntire - You Keep Me Hangin' On
TTITLE2=Jimmy Buffet - The Pascagoula Run
TTITLE3=Dolly Parton - The Salt In My Tears
TTITLE4=George Jones - Smack Dab
TTITLE5=Danni Leigh - Ol' Lonesome
TTITLE6=Lee Ann Womack - Buckaroo
TTITLE7=Nitty Gritty Dirt Band - Bang, Bang, Bang
TTITLE8=George Straight - One Night At A Time
TTITLE9=Helen Darling - Full Deck Of Cards
TTITLE10=Rhett Akins - Drivin' My life Away
TTITLE11=Raybon Brothers - Just Tryin' To Keep The Woman I Got
TTITLE12=Gary Allen - Red Lips,Blue Eyes, Little White Lies
TTITLE13=Chris Knight - Framed
TTITLE14=Kris Tyler - Rockin' Horse
TTITLE15=Jimmy Buffet - Volcano
TTITLE16=J.C.Jones - One Night
TTITLE17=Mark Chesnutt - Settlin' For What They Get
TTITLE18=Olivia Newton-John - Back With A Heart
TTITLE19=Keith Harling - Right In The Middle
EXTD=
EXTT0=
EXTT1=
EXTT2=
EXTT3=
EXTT4=
EXTT5=
EXTT6=
EXTT7=
EXTT8=
EXTT9=
EXTT10=
EXTT11=
EXTT12=
EXTT13=
EXTT14=
EXTT15=
EXTT16=
EXTT17=
EXTT18=
EXTT19=
PLAYORDER=
